<svg class="icon" viewBox="0 0 1024 1024" xmlns="http://www.w3.org/2000/svg" width="200" height="200"><path d="M898.663 685.918H838.97V536.691c0-16.477-13.365-29.837-29.846-29.837H540.523V327.782h59.682c32.834 0 59.696-26.862 59.696-59.692V89.017c0-32.83-26.862-59.689-59.696-59.689H421.136c-32.833 0-59.69 26.86-59.69 59.69V268.09c0 32.83 26.857 59.692 59.69 59.692h59.69v179.07H212.22c-16.484 0-29.849 13.363-29.849 29.84v149.227h-59.687c-32.832 0-59.693 26.862-59.693 59.692v179.07c0 32.836 26.859 59.699 59.693 59.699h179.071c32.83 0 59.692-26.863 59.692-59.699v-179.07c0-32.83-26.862-59.69-59.692-59.69h-59.692V566.54h537.213v119.38h-59.681c-32.831 0-59.694 26.86-59.694 59.69v179.071c0 32.836 26.863 59.699 59.694 59.699h179.069c32.83 0 59.692-26.863 59.692-59.699v-179.07c0-32.83-26.862-59.694-59.693-59.694z"/></svg>