<svg class="icon" viewBox="0 0 1024 1024" xmlns="http://www.w3.org/2000/svg" width="200" height="200"><path d="M857.6 102.4c12.8 0 32 6.4 44.8 19.2 12.8 12.8 19.2 25.6 19.2 38.4v710.4c0 12.8-6.4 25.6-19.2 38.4-12.8 12.8-25.6 19.2-44.8 19.2H166.4c-12.8 0-32-6.4-44.8-19.2-12.8-12.8-19.2-25.6-19.2-38.4V160c0-12.8 6.4-25.6 19.2-38.4 12.8-12.8 25.6-19.2 44.8-19.2h691.2m0-38.4H166.4C108.8 64 64 108.8 64 160v710.4c0 44.8 44.8 89.6 102.4 89.6h691.2c57.6 0 102.4-44.8 102.4-96V160c0-51.2-44.8-96-102.4-96zM230.4 262.4c0 25.6 19.2 38.4 44.8 38.4S320 288 320 262.4c0-25.6-19.2-38.4-44.8-38.4s-44.8 19.2-44.8 38.4zm0 249.6c0 25.6 19.2 38.4 44.8 38.4S320 537.6 320 512c0-25.6-19.2-38.4-44.8-38.4s-44.8 12.8-44.8 38.4zm0 249.6c0 25.6 19.2 38.4 44.8 38.4 25.6 0 44.8-19.2 44.8-38.4 0-25.6-19.2-38.4-44.8-38.4-25.6-6.4-44.8 12.8-44.8 38.4zm563.2-480H396.8c-12.8 0-19.2-6.4-19.2-19.2 0-6.4 6.4-19.2 19.2-19.2h396.8c12.8 0 19.2 6.4 19.2 19.2 0 12.8-12.8 19.2-19.2 19.2zm0 249.6H396.8c-12.8-6.4-19.2-12.8-19.2-25.6s6.4-19.2 19.2-19.2h396.8c12.8 0 19.2 6.4 19.2 19.2 0 12.8-6.4 19.2-19.2 25.6zm0 249.6H396.8c-12.8 0-19.2-6.4-19.2-19.2 0-12.8 6.4-19.2 19.2-19.2h396.8c12.8 0 19.2 6.4 19.2 19.2 0 12.8-12.8 19.2-19.2 19.2z"/></svg>