<svg class="icon" viewBox="0 0 1067 1024" xmlns="http://www.w3.org/2000/svg" width="200" height="200"><path d="M201.403 555.678v225.668c0 133.46 109.194 242.654 242.654 242.654h354.275c133.46 0 242.654-109.194 242.654-242.654V555.678H201.403z" fill="#20DAB4"/><path d="M710.976 1019.147H322.73c-148.02 0-266.92-118.9-266.92-266.92V363.981c0-148.019 118.9-266.92 266.92-266.92h388.246c148.02 0 266.92 118.901 266.92 266.92v388.246c0 148.02-118.9 266.92-266.92 266.92zm-385.82-873.555c-121.327 0-218.388 97.062-218.388 218.389v388.246c0 121.328 97.061 218.39 218.388 218.39h388.247c121.327 0 218.388-97.062 218.388-218.39V363.981c0-121.327-97.061-218.389-218.388-218.389H325.156z" fill="#106D5A"/><path d="M97.062 359.128h873.554c41.251 0 72.796 31.545 72.796 72.796s-31.545 72.796-72.796 72.796H97.062c-41.252 0-72.797-31.545-72.797-72.796s31.545-72.796 72.797-72.796z" fill="#FFF"/><path d="M970.616 528.986H97.062C43.678 528.986 0 485.308 0 431.924s43.678-97.061 97.062-97.061h873.554c53.384 0 97.062 43.677 97.062 97.061s-43.678 97.062-97.062 97.062zM97.062 383.393c-26.692 0-48.531 21.84-48.531 48.531s21.839 48.531 48.53 48.531h873.555c26.692 0 48.53-21.839 48.53-48.53s-21.838-48.532-48.53-48.532H97.062zm555.677-262.066h-48.53c0-38.825-31.545-72.796-72.797-72.796s-72.796 31.545-72.796 72.796h-48.53C410.085 55.81 463.468 0 531.411 0S652.74 53.384 652.74 121.327zm48.531 795.905H361.555V674.578c0-80.076 65.516-145.592 145.592-145.592h48.53c80.077 0 145.593 65.516 145.593 145.592v242.654zm-291.185-48.53H652.74V674.577c0-53.384-43.677-97.061-97.061-97.061h-48.531c-53.384 0-97.062 43.677-97.062 97.061V868.7z" fill="#106D5A"/><path d="M480.455 672.152h97.062v48.53h-97.062v-48.53zm0 72.796h97.062v48.53h-97.062v-48.53z" fill="#106D5A"/></svg>