<svg class="icon" viewBox="0 0 1024 1024" xmlns="http://www.w3.org/2000/svg" width="200" height="200"><path d="M70.5 239.8c0 30.6 24.8 55.4 55.4 55.4s55.4-24.8 55.4-55.4-24.8-55.4-55.4-55.4c-30.6 0-55.4 24.8-55.4 55.4zm.1 274.4c0 30.6 24.8 55.4 55.4 55.4 30.6 0 55.4-24.8 55.4-55.4 0-30.6-24.8-55.4-55.4-55.4-30.6-.1-55.4 24.7-55.4 55.4zm0 275.8c0 30.6 24.8 55.4 55.4 55.4 30.6 0 55.4-24.8 55.4-55.4 0-30.6-24.8-55.4-55.4-55.4S70.6 759.3 70.6 790zm886.6-552.8c0 29.2-21.7 52.8-48.5 52.8H334c-26.8 0-48.5-23.7-48.5-52.8 0-29.1 21.7-52.8 48.5-52.8h574.7c26.8 0 48.5 23.6 48.5 52.8zm0 274.4c0 29.1-21.7 52.8-48.5 52.8H334c-26.8 0-48.5-23.7-48.5-52.8 0-29.2 21.7-52.8 48.5-52.8h574.7c26.8 0 48.5 23.6 48.5 52.8zm0 275.7c0 29.2-21.7 52.9-48.5 52.9H334c-26.8 0-48.5-23.7-48.5-52.9 0-29.1 21.7-52.7 48.5-52.7h574.7c26.8-.1 48.5 23.6 48.5 52.7z"/></svg>