<svg class="icon" viewBox="0 0 1024 1024" xmlns="http://www.w3.org/2000/svg" width="200" height="200"><path d="M744.844 311.9H279.156c-6.547 0-11.854 5.33-11.854 11.906v310.556c0 6.575 5.307 11.904 11.854 11.904h187.62l44.712 85.83 44.624-85.83h188.733c6.547 0 11.854-5.33 11.854-11.904V323.806c0-6.575-5.308-11.905-11.855-11.905zm-345.13 188.822c-12.245 0-22.172-9.927-22.172-22.172s9.927-22.172 22.172-22.172c12.245 0 22.172 9.927 22.172 22.172s-9.927 22.172-22.172 22.172zm111.88 0c-12.244 0-22.171-9.927-22.171-22.172s9.927-22.172 22.172-22.172c12.245 0 22.172 9.927 22.172 22.172s-9.927 22.172-22.172 22.172zm111.541 0c-12.245 0-22.172-9.927-22.172-22.172s9.927-22.172 22.172-22.172c12.245 0 22.172 9.927 22.172 22.172s-9.927 22.172-22.172 22.172z"/><path d="M512 .6C229.561.6.6 229.56.6 512s228.96 511.4 511.4 511.4 511.4-228.96 511.4-511.4S794.44.6 512 .6zm266.827 646.817c0 11.586-9.392 20.978-20.978 20.978H571.668l-60.18 108.854-60.18-108.854H266.152c-11.586 0-20.978-9.392-20.978-20.978V310.75c0-11.585 9.392-20.977 20.978-20.977H757.85c11.586 0 20.978 9.392 20.978 20.977v336.668z"/></svg>