<svg class="icon" viewBox="0 0 1024 1024" xmlns="http://www.w3.org/2000/svg" width="200" height="200"><path d="M574.144 434.24a291.648 291.648 0 0 0-74.752 44.8c-22.656 18.624-42.24 40-58.816 64a296 296 0 0 0-51.968 168.768c0 27.712 3.584 54.208 10.816 79.552a320 320 0 0 0 29.952 71.616h-21.568c-15.488 0-33.472-.576-54.016-1.6a2576.192 2576.192 0 0 1-128.768-10.816 1502.528 1502.528 0 0 1-58.752-7.616 731.84 731.84 0 0 1-44.8-8c-12.288-2.688-20.032-5.312-23.232-8-5.824-4.224-10.24-17.472-13.184-39.552-2.944-22.144-1.728-50.56 3.584-85.184a70.4 70.4 0 0 1 13.248-32.832 96.64 96.64 0 0 1 24.32-22.016c9.6-6.08 20.288-11.008 32-14.72 11.776-3.84 23.808-7.36 36.032-10.88a628.71 628.71 0 0 0 35.584-11.136c11.52-4.032 22.016-8.96 31.616-14.848a124.16 124.16 0 0 0 25.984-20.352 68.48 68.48 0 0 0 13.184-19.648 51.456 51.456 0 0 0 4.032-19.968c0-6.912-.256-14.72-.832-23.168a44.288 44.288 0 0 0-12.8-29.248 424.128 424.128 0 0 0-24.768-21.952 52.8 52.8 0 0 1-11.584-15.616 199.168 199.168 0 0 1-9.216-20.416 1392.32 1392.32 0 0 1-8-24.768 36.736 36.736 0 0 1-11.2-5.632 72.96 72.96 0 0 1-10.368-11.2 63.168 63.168 0 0 1-9.6-20.736 70.592 70.592 0 0 1-3.2-24.832 57.856 57.856 0 0 1 4.8-19.968 51.456 51.456 0 0 1 10.368-16.832c0-20.224 1.088-40.512 3.2-60.8 2.112-17.024 5.888-35.456 11.2-55.168 5.312-19.712 13.632-37.312 24.768-52.8 10.688-14.912 22.144-27.072 34.432-36.352a163.84 163.84 0 0 1 38.4-22.016c13.312-5.312 26.496-8.96 39.552-10.816 13.12-1.856 25.728-2.816 38.016-2.816 15.488 0 30.784 1.792 46.016 5.248 15.168 3.456 29.44 8.128 42.752 13.952 13.376 5.888 25.216 12.544 35.584 20.032 10.432 7.488 18.56 14.912 24.448 22.4 13.824 17.024 23.936 35.84 30.336 56.32 6.4 20.608 10.944 40.192 13.632 58.88 2.688 21.312 3.968 42.88 3.968 64.768a27.84 27.84 0 0 1 8.832 10.368c2.112 3.776 3.84 8.512 5.184 14.4 1.28 5.888 1.472 13.056.384 21.632a75.712 75.712 0 0 1-6.784 27.52 52.864 52.864 0 0 1-11.584 15.616 40.32 40.32 0 0 1-15.232 8.832l-3.2 10.368-3.968 11.2c-1.088 3.776-2.432 7.744-4.032 12.032zm346.368 180.352a261.504 261.504 0 0 0-54.016-80.384 253.12 253.12 0 0 0-80-54.4 243.072 243.072 0 0 0-97.92-19.968c-35.2 0-68.16 6.656-98.816 19.968-30.72 13.376-57.344 31.488-80 54.4a261.504 261.504 0 0 0-53.952 80.384c-13.376 30.72-20.032 63.36-20.032 97.984 0 34.688 6.656 67.328 20.032 97.984 13.312 30.72 31.36 57.472 53.952 80.384a249.344 249.344 0 0 0 178.752 73.6c34.688 0 67.328-6.528 97.984-19.584a247.68 247.68 0 0 0 80-54.016c22.656-22.912 40.64-49.728 54.016-80.384 13.312-30.72 19.968-63.36 19.968-97.92 0-34.688-6.656-67.392-19.968-98.048zm-72.96 44.736L683.456 828.736l-1.664 1.728-.192-.128a34.816 34.816 0 0 1-48.64-1.6L544.64 737.6a37.44 37.44 0 0 1 0-51.84 34.752 34.752 0 0 1 50.24 0l63.36 65.408 139.008-143.68a34.752 34.752 0 0 1 50.24 0 37.568 37.568 0 0 1 0 51.84z"/></svg>