<svg class="icon" viewBox="0 0 1024 1024" xmlns="http://www.w3.org/2000/svg" width="200" height="200"><path d="M291.328 171.52c-66.048 0-119.808 53.76-119.808 119.808s53.76 119.296 119.808 119.296 119.296-53.76 119.296-119.296c0-66.048-53.76-119.808-119.296-119.808z"/><path d="M848.384 10.24H175.616C84.48 10.24 10.24 84.48 10.24 175.616v673.28c0 90.624 74.24 164.864 165.376 164.864h673.28c91.136 0 165.376-74.24 165.376-165.376V175.616C1013.76 84.48 939.52 10.24 848.384 10.24zm123.392 619.52L694.784 352.768c-7.68-7.68-21.504-7.68-29.696 0l-273.92 273.92-93.184-93.184c-7.68-7.68-21.504-7.68-29.696 0L51.712 750.08V175.616c.512-68.096 55.808-123.392 123.904-123.392h673.28c68.096 0 123.392 55.296 123.392 123.392V629.76z"/></svg>