<svg class="icon" viewBox="0 0 1024 1024" xmlns="http://www.w3.org/2000/svg" width="200" height="200"><path d="M512 526.933c115.464 0 209.067-138.402 209.067-253.867S627.464 64 512 64s-209.067 93.602-209.067 209.067S396.536 526.933 512 526.933zM138.667 795.94c0-56.491 40.976-122.73 91.525-147.951l92.977-46.39 70.427 242.936s1.97 21.021 37.177 21.021 35.207-21.021 35.207-21.021V646.4s1.598-44.8 47.504-44.8 45.906 44.8 45.906 44.8v198.136s12.003 24.901 40.442 24.901 31.872-24.901 31.872-24.901L700.658 601.6l93.133 46.424c50.558 25.201 91.543 91.418 91.543 147.917v61.774c0 56.491-45.793 102.286-102.28 102.286H240.946c-56.487 0-102.28-45.786-102.28-102.286V795.94z"/></svg>