<svg class="icon" viewBox="0 0 1024 1024" xmlns="http://www.w3.org/2000/svg" width="200" height="200"><path d="M541.5 42.7c25.4 2.1 50.3 5.8 74.7 14C684.8 80 739.1 122 781.5 180.2c49.7 68.1 75.3 145.2 84.2 228.4 1.2 11.3 3.3 22.5.9 33.9-.7 8.3-3 16.7 1.5 24.6 1.8 3.1 2.1 6.4 2.2 9.9-.4 56.3-8.2 111.5-23.5 165.6-.5 3.4-3 6.4-2.5 11.3 7.4-2.3 12.9-6.9 18.3-11.5 36.6-31.3 48.4-71.6 42.5-118.2-1-8.1-2.3-16.3-5-24.1-4.8-14.3-12-26.4-27.4-31.5-2.9-1-5.9-2.3-7-5.7 0-4.7.2-9.4-.1-14-.2-4.7 1.6-7.4 6.2-8.2 16.8-1.1 29 7.5 39.3 19.2 13.9 15.9 19.5 35.1 20.5 55.9 2.1 11.2 1.2 52.6 1.2 52.6-4.5 48.1-29.7 83-69.3 108.9-7.3 4.8-15.1 8.8-23.4 10.7-8.1 1.9-11.6 7.1-14.2 14-13.8 36.9-31.5 72-52.9 105-36.4 56.3-80.1 105.8-138.4 140.5-31.6 18.8-64.9 33.6-103 32.5-.7 0-1.4.5-2 1.1h-11.8c-3.1-1.9-6.3-1.9-9.4 0h-16.5c-67.7-6.1-120.4-40.9-167.6-86.7-57.2-55.5-96.2-122.4-125-195.9-1.3-3.3-2.7-6.5-4-9.8-2.7-10-5.8-19.8-10.1-29.2-1.3-5.2-3.2-10.2-5.1-15.3-15.6-55.1-24-111.2-23.8-168.5 0-2 .3-3.9.8-5.9 1.8-4.8 1.6-9.9 1.5-14.9v-13.1c3.9-102.7 34.6-196.1 98.5-277.1C303.5 106 363.8 67.2 436.9 49.1c16.5-4.1 34-4.6 50.8-6.4 23-1.9 28.8-1.4 28.8-1.4l25 1.4z"/><path d="M508.5 981.3c3.1-3.3 6.3-3.3 9.4 0h-9.4z" fill="#221F1E"/><path d="M574.5 946.3c-40.9 15.5-81.8 15-122.7.3-26.5-14.8-50.4-33.2-71.4-55-53.8-56-93.1-121-121-193.4-20-52-33-105.7-38.7-161-8-77.7-1.9-154.2 21.7-229.2 21.3-67.5 55.2-127.2 106-176.9 18.9-18.4 39.8-34.1 63.2-46.5 40.4-16.1 82.5-20.8 125.5-17.3 26.5 2.1 52.7 6.5 77.4 17.4C692 128 740.4 195.5 772.7 275.9c19.9 49.5 30.4 101.3 33.8 154.8 10.2 160.3-33.8 303.7-133.2 429.8-27.2 34.8-59.5 64.5-98.8 85.8z" fill="#FEDBC8"/><path d="M574.5 946.3c6.4-8.8 16.6-12.8 25-19 53-39.2 92.3-89.9 124.9-146.5 34.9-60.7 57.8-125.9 70.9-194.5 8.9-46.3 12.8-93.2 10-140.2-4.5-74.5-19.9-146.4-55.3-213.1-29.8-56-69.3-103.2-122.8-138.2-4.5-2.9-10.1-4.5-12.6-10.1C659 99 696 125 728.1 157.9 785.9 217 819 289.3 833.2 369.7c29.1 165-6.1 316.4-102.9 453-35.6 50.3-80 91.5-137.1 117.2-6 2.6-11.9 5.8-18.7 6.4z" fill="#FEB38C"/><path d="M411.7 84.7c-1.6 5.2-6.6 6.6-10.4 8.9-48.7 30.8-85.9 72.6-114.8 122-34.3 58.6-53.4 122.1-61.4 189.4-3.7 30.8-5.5 61.7-4.1 92.5 3 65.2 15.2 128.6 37.8 190 21.1 57.4 49.5 110.8 86.9 159.2 26.7 34.6 57.3 65.2 93.8 89.6 4.4 2.9 10.2 4.5 12.3 10.3-47.3-15.2-85.5-44.2-118.8-79.8-76.3-81.3-120.1-179-140.3-287.6-17.1-91.9-13.3-183.1 16.8-272 31.9-94.2 87.2-169.6 179.3-213.7 7.4-3.5 14.7-7.3 22.9-8.8zM187.6 660.4c-11.1-1.5-18.8-9-26.9-15.5-50.1-40.2-53.1-103.9-35.4-153.9 5.3-15 16.1-25.9 34-25.9 1.5 1.3 1.3 2.8.5 4.4-.3 1.6-.5 3.2-.8 4.8-10.5 26.6-14.2 54.1-13.3 82.8.7 22.7 6.5 43.2 19 62 6.1 9.1 12.7 17.9 18.5 27.2 2.7 4.3 3.9 9.1 4.4 14.1z" fill="#FEFEFE"/><path d="M867 465.3c14.7.3 24.7 8.3 30.3 20.8 23.7 53.5 18.6 137.2-58.1 174.6-.3-6.3 2-11.4 4.4-16.6 10.3-16.9 23.7-31.9 29.8-51.5 10.6-34.1 8.8-67.8-1.8-101.4-1.5-4.8-2.6-9.8-4.3-14.6-.2-3.1-.5-6.3-.7-9.4-.7-.8-.6-1.5.4-1.9z" fill="#FEB38C"/><path d="M183.3 646.3c-21.5-19-36.2-43.1-39.3-71-3.1-27.2-4.7-55.4 5.6-82.2 2.5-6.6 5.1-13.1 9.4-18.7.6 58.3 9.7 115.5 24.3 171.9z" fill="#FEDDCB"/><path d="M867.3 476.7c17.6 28.2 18.2 59.5 15 90.8-3 30-15.7 56.2-38.7 76.7 11-44.3 20-88.9 22.2-134.7.5-11 1-21.9 1.5-32.8z" fill="#F79A69"/><path d="M867 465.3c.1.7 0 1.4-.5 2-4-8.6-1.5-17.7-1.7-26.6 3.1 1.5 7 0 9.7 2.7-5 .2-8.1 2-7.6 7.8.4 4.7.1 9.4.1 14.1z" fill="#241913"/><path d="M159.8 469.6c-.2-1.5-.3-2.9-.5-4.4.1-3.3.1-6.6.2-9.8.7-1 1.4-1 2.2 0-.4 4.7 1.7 9.8-1.9 14.2z" fill="#131313"/><path d="M161.7 455.3h-2.2c-.1-4.5-.1-9-.2-13.6.7-.4 1.4-.7 2.1-1.1.2 5 .2 9.9.3 14.7z" fill="#292929"/><path d="M658.7 575.9c-33.7-1.6-62.3-13.3-80.5-43.2-18.5-30.4-7.2-57.6 27.4-65.2 35.7-7.8 71.9-7.8 107.6 0 34.5 7.6 45.7 35 27.1 65.3-18.4 30.3-47.4 41.9-81.6 43.1zM352.9 462.5c24.9.1 44.5.5 63.5 6.6 28.9 9.3 38.3 31.8 24.8 59.2-16 32.6-58.4 52.8-97.8 46.6-28.1-4.4-51.5-16.7-66.7-41.5-18.9-30.8-7.5-57.7 27.5-66 17.8-4.3 35.8-5.2 48.7-4.9zm157 379.7c-39.8.1-74.9-29.6-81.1-66-3.5-20.7 7.1-33.2 28.9-32.7 19.6.5 39 3.8 58.7 2.7 13.4-.8 26.3-4 39.3-7 22.9-5.2 34.8 5.9 29.4 28.7-8.5 35.7-27.5 63-65.3 72.8-4.2 1.1-8.6 1.3-9.9 1.5z"/><path d="M701.8 232.5c0 22.7-13.9 31.3-32.7 21.5-24.6-12.8-44.6-52.4-40.3-79.6 1.9-11.9 11.7-18.2 23.1-14.1 27 9.7 38.9 32.4 47.2 57.5 1.6 5 4 10.3 2.7 14.7z" fill="#FEFEFE"/><path d="M475.6 587.7c0-20 .1-40.1 0-60.1 0-7.3.9-14.3 10.1-14 8.6.2 8.9 7.1 8.9 13.8-.1 37.3 0 74.6 0 111.9 0 19 9.7 31.1 28.2 34.2 6.9 1.2 14.7 1.9 13.2 11-1.5 9.4-9.5 8.6-16.9 7.5-25.2-3.8-43.4-24.8-43.4-50.2-.1-17.9-.1-36-.1-54.1zm-46.1-176.5c-19.6-2.8-40.2-5.7-61-5.2-29.4.8-58.8 2.2-85.6 16.5-5.8 3.1-10.8 2-13.8-3.9-2.9-5.7.3-9.8 5.1-12.7 16.5-9.9 34.9-13.6 53.5-16.2 34.4-4.7 68.8-3 103 2.5 6.4 1 12.9 2.6 12 11.3-.9 7.3-6.3 8.1-13.2 7.7zm315.1 8.1c.2 6.9-6.1 11.6-12.8 8.4-45.7-21.6-93.5-19-141.7-12.7-7.5 1-18.5 5.3-19.7-7.3-1.1-11.1 9.6-10.1 17-11.3 40.6-6.5 81.1-6.8 121.4 2.5 10.3 2.4 20.2 5.9 29.4 11.3 3.6 2.1 6.4 4.5 6.4 9.1z" fill="#010101"/><path d="M660 481.4c17.3-.3 34.5.4 51.3 5 18.7 5.1 23.9 16.9 14.5 33.8-14.4 25.9-38 36.4-66.4 36.4-28.4 0-52.1-10.6-66.4-36.5-9.4-16.9-4.1-28.6 14.6-33.7 17.1-4.7 34.7-5.3 52.4-5zm-302.6 75.7c-27.1-1.3-50-10.4-64.8-34-11.7-18.5-6.5-32.1 14.6-36.8 33.7-7.4 67.7-7.4 101.4.1 20 4.5 25.3 17.6 14.8 35.2-14.8 24.9-38.4 34.3-66 35.5z" fill="#FEFEFE"/><path d="M506 823.3c-26.4-.3-53.6-23.4-58.5-49.3-1.9-10.3 3.1-12.4 11.7-11.7 20.3 1.6 40.5 4.1 60.9 2.7 13.4-.9 26.2-4.1 39.2-7.2 3.2-.8 7.9-3.2 8 4.1.3 27.7-33.5 61.7-61.3 61.4z" fill="#FEBE97"/><path d="M668.9 509.4c-1 5.9-3.8 9.5-9.3 9.5-6 .1-9.7-3.6-9.5-9.5.2-5.9 4.1-9.4 10.1-8.9 5.5.4 8 4.3 8.7 8.9zm-311.1 9.8c-5.9-1-9.5-3.8-9.5-9.3-.1-6 3.6-9.7 9.5-9.5 5.9.2 9.4 4.1 8.9 10.1-.4 5.5-4.3 7.9-8.9 8.7z" fill="#0B0B0B"/><path d="M93.6 528.2c-1.1 12.6-2.2 25.3 0 41.4 3.4 25.2 12.6 43.2 15.7 48.8 2.8 5.1 10.4 18.4 24.4 32.5 25.6 25.8 59.4 40.9 63.4 35.9.6-.8-.8-5.1-3.8-13.6-3.4-9.8-4.9-12-5.7-12.9-4.2-5.4-9.7-7.5-11.4-8.2-11.8-5.1-43.5-35-54.6-77.7 0 0-8.7-33.7 2.9-72.5 0 0 5-16.6 15-25.6 3.3-3 5.6-5 9.2-6.2 1.3-.4 3.5-1 6.6-2.3 3.4-1.5 4.3-2.3 4.8-3.3.2-.4.4-.9.4-4.7V455c0-4.4.2-4.6.1-6.7-.1-2.1-.3-5.3-1.3-6.6-3-3.7-19.1.9-32.3 10.8-19.8 15-26.5 37.3-29.1 46.3-2.6 9.4-3.2 16.5-4.3 29.4z"/></svg>