<svg class="icon" viewBox="0 0 1024 1024" xmlns="http://www.w3.org/2000/svg" width="200" height="200"><path d="M921.6 59.733H145.067C98.133 59.733 64 98.133 64 140.8v529.067c0 46.933 38.4 81.066 81.067 81.066H512v102.4H405.333c-34.133 0-64 29.867-64 64s29.867 64 64 64H704c34.133 0 64-29.866 64-64s-29.867-64-64-64H597.333v-102.4H921.6c46.933 0 81.067-38.4 81.067-81.066V140.8c0-46.933-38.4-81.067-81.067-81.067zM896 460.8H661.333l-55.466 166.4-170.667-256-29.867 89.6H170.667v-64h192l55.466-166.4 170.667 256 29.867-89.6H896v64z"/></svg>