<svg class="icon" viewBox="0 0 1024 1024" xmlns="http://www.w3.org/2000/svg" width="200" height="200"><path d="M642.844 950.044c-11.377 0-22.755-5.688-34.133-17.066-11.378-17.067-22.755-28.445-34.133-34.134-17.067-11.377-34.134-11.377-51.2-11.377-34.134 0-68.267 17.066-85.334 51.2-11.377 17.066-34.133 22.755-51.2 11.377l-176.355-102.4c-17.067-11.377-22.756-34.133-17.067-51.2 5.69-17.066 11.378-28.444 11.378-51.2 0-56.888-45.511-102.4-102.4-102.4-22.756 0-34.133-17.066-34.133-39.822v-204.8c0-22.755 17.066-39.822 34.133-39.822s34.133-5.689 51.2-11.378c22.756-11.378 39.822-34.133 51.2-62.578 5.689-22.755 0-51.2-5.689-73.955-17.067-17.067-11.378-39.822 5.689-51.2l176.356-102.4c17.066-11.378 39.822-5.689 51.2 11.378 17.066 22.755 51.2 51.2 85.333 51.2s68.267-17.067 85.333-51.2c11.378-17.067 34.134-22.756 51.2-11.378l176.356 102.4c22.755 11.378 28.444 34.133 17.066 51.2-5.688 17.067-11.377 28.444-11.377 51.2 0 56.889 45.51 102.4 102.4 102.4 22.755 0 34.133 17.067 34.133 39.822v204.8c0 22.756-17.067 39.822-34.133 39.822s-34.134 5.69-51.2 11.378c-22.756 11.378-39.823 34.133-51.2 62.578-5.69 22.755 0 51.2 5.689 73.955 11.377 17.067 0 39.823-17.067 51.2l-176.356 102.4h-5.689zM517.69 807.822c28.444 0 62.578 5.69 91.022 22.756 17.067 5.689 28.445 17.066 39.822 28.444L768 790.756c-5.689-28.445-11.378-62.578 0-96.712 11.378-45.51 45.511-85.333 85.333-108.088 17.067-5.69 28.445-17.067 45.511-17.067V432.356C819.2 409.6 762.311 341.333 762.311 256c0-17.067 0-34.133 5.689-51.2l-119.467-68.267c-34.133 34.134-79.644 51.2-130.844 51.2-51.2 0-102.4-28.444-130.845-56.889L273.067 204.8c5.689 28.444 11.377 62.578 0 96.711C256 341.333 227.556 381.156 187.733 409.6c-17.066 5.689-34.133 11.378-45.51 17.067V563.2c79.644 22.756 136.533 91.022 136.533 176.356 0 17.066 0 34.133-5.69 51.2l119.467 68.266c34.134-28.444 79.645-51.2 125.156-51.2z" fill="#999"/><path d="M517.689 665.6c-91.022 0-164.978-73.956-164.978-164.978s73.956-164.978 164.978-164.978S682.667 409.6 682.667 500.622 614.4 665.6 517.689 665.6zm0-256c-45.511 0-85.333 45.511-85.333 91.022s39.822 91.022 91.022 91.022 91.022-39.822 91.022-91.022-45.511-91.022-96.711-91.022z" fill="#999"/></svg>