<svg class="icon" viewBox="0 0 1024 1024" xmlns="http://www.w3.org/2000/svg" width="200" height="200"><path d="M705.687 654.425v.462l.467.939v.462c.454.463.454 1.401.454 1.401l12.817 82.526c.908 8.394 3.659 21.454 4.113 28.91-2.75 3.264-6.862 8.393-13.27 7.93-3.659-.475-10.521-6.066-13.725-7.468-24.712-15.387-51.24-33.1-76.406-48.024-28.37-17.251-60.399-37.766-89.236-55.942-2.737-1.877-10.973-6.067-12.349-8.394-2.75-.476-4.112-2.803-6.408-2.34l-89.222 55.956c-31.107 19.577-63.602 40.569-95.163 59.22-3.204 2.327-8.704 6.517-12.817 6.993-19.225.462-14.646-3.266-10.066-41.508 1.828-16.312 22.883-203.755 22.883-211.674l-77.794-69.478c-10.066-8.857-29.732-27.971-38.89-34.964L179.5 396.114c-2.737-1.864-8.237-5.592-10.066-7.932h231.98c6.408-12.585 20.6-36.828 28.837-51.752 9.145-17.25 16.462-36.827 25.166-54.554 4.566-8.857 8.691-18.176 13.258-27.509l31.572-68.538c7.784-16.788 3.204-13.523 21.508-13.047l69.09 135.678c4.579 8.857 9.158 18.19 13.724 27.046 5.034 8.857 10.067 17.714 14.646 26.57 4.58 8.395 10.987 17.727 14.645 26.108 16.929.938 35.687 0 53.07 0h145.507c4.58 0 10.52-.925 10.974-.462 2.75 3.727-7.77 10.257-12.35 13.985l-45.752 37.304c-10.52 8.856-19.68 17.25-30.2 26.107-12.348 10.258-32.48 28.91-44.39 38.242l-14.632 13.047c-5.955 5.13-10.067 6.068-9.612 10.734.454 1.863.92 4.19.92 6.054 2.738 16.325 18.759 117.502 18.292 121.23zM157.083 387.72c2.283-1.4 5.033-.462 8.237.463-1.375 0-2.75 0-4.58.476-2.282 0-2.282 0-3.657-.939zm-88.77 100.253v40.555c1.376 3.266 1.376 19.59 2.284 24.72 2.296 24.243 5.954 44.759 11.908 68.54 16.462 67.601 47.582 124.495 89.677 176.71l12.349 14.46c4.58 4.19 8.237 9.32 12.817 13.986 71.372 72.268 164.72 119.353 268.134 130.087 5.486.462 21.494.925 25.152 2.327h40.733c3.658-1.401 19.212-1.864 24.699-2.327 7.783-.476 15.566-1.864 22.883-2.803 44.378-6.992 81.906-19.577 121.25-37.766 46.22-21.917 88.315-53.154 124-89.055 71.84-74.132 116.672-167.853 127.206-273.235.454-5.128.907-22.38 2.283-25.645v-40.555c-1.376-3.266-1.376-17.251-1.829-22.38-.921-7.47-1.375-14.461-2.75-21.917-5.034-37.766-16.463-78.335-30.654-112.373-10.066-23.781-20.587-42.895-32.482-63.412-5.954-9.795-12.817-19.577-19.679-28.91-8.237-11.182-13.724-16.774-20.587-26.107-6.862-9.319-15.553-16.788-23.336-25.182-19.68-21.442-53.99-47.548-79.156-63.411-29.745-19.577-62.227-34.039-96.552-45.685-4.566-1.4-35.687-10.258-36.14-10.258-12.817-1.863-25.166-5.128-38.437-6.993-5.954-.938-38.89-3.265-40.719-4.204h-40.733c-3.658 1.401-19.666 1.864-24.698 2.327-103.413 10.736-197.67 57.822-268.588 130.09-71.385 72.743-116.684 169.73-126.75 273.697-.909 5.129-.909 21.453-2.284 24.719z"/><path d="M565.679 447.866c-9.612 9.333-41.174 34.501-53.537 44.76-16.928 14.461-37.515 31.712-54.444 45.235-16.02 12.585-37.515 31.236-53.99 44.76l-40.732 34.038c-3.19 2.802-11.428 8.856-13.725 11.66 19.225.924 60.399 0 82.36 0h205.907c9.145 0 33.402.924 40.72-.477l-193.545-42.419c2.283-4.203 80.986-75.07 93.347-86.73 4.112-3.727 7.317-7.455 11.428-10.72l81.907-75.531H364.35l201.328 35.424zM157.083 387.72c1.375.939 1.375.939 3.658.939 1.829-.476 3.204-.476 4.58-.476-3.205-.925-5.955-1.863-8.238-.463z"/></svg>